<?xml version="1.0" encoding="utf-8"?>
<!-- Generator: Adobe Illustrator 22.0.1, SVG Export Plug-In . SVG Version: 6.00 Build 0)  -->
<svg version="1.1" id="Layer_1" xmlns="http://www.w3.org/2000/svg" xmlns:xlink="http://www.w3.org/1999/xlink" x="0px" y="0px"
	 viewBox="0 0 62 62" style="enable-background:new 0 0 62 62;" xml:space="preserve">
<style type="text/css">
	.st0{fill:#D4C0F2;}
	.st1{fill:#9676CC;}
</style>
<path class="st0" d="M43,37.7v-0.3l0,0v-9.8h3.6v6.5h13.9c-0.4-1.3-1-2.5-2-3.7c0.8-1.3,3.1-5.1,2.9-10c-0.4-7.1-5-12.3-10.6-13.5
	c-1.5-3.5-4.5-6.8-10.1-6.8c-3.6,0-7.4,2.7-7.4,7v7.2h14.1v3.6H33.2v21.3h3.7l0,0h3.6v8.2h3.4V51H38l0,0h-1.1v-8.1h-3.7v3.6v9.9
	c0.5,4.5,4.2,5.6,6.5,5.6c2.5,0,5.3-1,6.8-5.2c3.3-0.3,5.9-1.3,7.3-3.7c0.6-1,0.9-2.1,0.9-3.2c0.1-1.4-0.3-3.3-0.9-4.6
	c1.8-0.6,4.8-1.8,6.2-5c0.3-0.7,0.5-1.5,0.6-2.5L43,37.7L43,37.7z"/>
<path class="st0" d="M16.2,28.3v4.8h-3.6v-4.8l0,0v-3.6H29V11.6h-6.7v7.6l0,0v0.5H12.1v-3.6h6.6v-4.5l0,0V8H29V7.1
	c0-4.3-3.9-7-7.4-7C16,0.1,13,3.4,11.5,6.9C5.8,8.1,1.2,13.3,0.9,20.5c-0.2,4.9,2.1,8.7,2.9,10C1,33.7,0.9,37.7,2,40.2
	c1.4,3.1,4.2,4.3,6.1,4.9h10.1v3.6H7.4c0,0.4,0,0.7,0,1c0,1.1,0.3,2.2,0.9,3.2c1.4,2.4,4.1,3.4,7.3,3.7c1.5,4.2,4.4,5.2,6.8,5.2
	s6-1,6.5-5.6v-9.9v-18C28.9,28.3,16.2,28.3,16.2,28.3z"/>
<g>
	<circle class="st1" cx="14.4" cy="36.1" r="4.3"/>
	<circle class="st0" cx="14.4" cy="36.1" r="1.7"/>
</g>
<g>
	<circle class="st1" cx="21" cy="46.8" r="4.3"/>
	<circle class="st0" cx="21" cy="46.8" r="1.7"/>
</g>
<g>
	<circle class="st1" cx="47.2" cy="49.1" r="4.3"/>
	<circle class="st0" cx="47.2" cy="49.1" r="1.7"/>
</g>
<g>
	<circle class="st1" cx="44.8" cy="27.3" r="4.3"/>
	<circle class="st0" cx="44.8" cy="27.3" r="1.7"/>
</g>
<g>
	<circle class="st1" cx="50" cy="16.1" r="4.3"/>
	<circle class="st0" cx="50" cy="16.1" r="1.7"/>
</g>
<g>
	<circle class="st1" cx="12" cy="17.9" r="4.3"/>
	<circle class="st0" cx="12" cy="17.9" r="1.7"/>
</g>
</svg>
